name processed_emg_signals
nRows=81
nColumns=7
 
endheader
time	LGLTMED	LRF	LADDLONG	LST	LTA	LGM
1.8820000000000001	0.4684859824004362	0.9977098376924758	0.9322011120058004	0.1827485342470454	0.1160335745865178	0.2278824622280215
1.883	0.4679092362880449	0.9971150306509116	0.9282765285635054	0.182857472598481	0.1163418702278554	0.2277332725891786
1.8840000000000001	0.4674138585078726	0.9964512734675284	0.9242787234054936	0.1829534028757697	0.1166499408381858	0.2276008074203329
1.885	0.466998418742502	0.9957186390440907	0.9202115501393702	0.1830365282791496	0.1169584480624669	0.2274860203607209
1.8860000000000001	0.4666614179076362	0.9949172730332098	0.9160788966017204	0.1831070499790287	0.1172680492889967	0.2273898372816887
1.887	0.4664012906574854	0.9940473953029878	0.9118846786872552	0.1831651660263038	0.1175793963696299	0.2273131527793507
1.8880000000000001	0.4662164079588544	0.9931093012600768	0.9076328341470168	0.183211070290138	0.1178931343513833	0.2272568267931957
1.889	0.4661050797307589	0.992103363016028	0.9033273163706244	0.1832449514215448	0.1182099002197086	0.2272216813596657
1.8900000000000001	0.4660655575475248	0.9910300303836512	0.8989720881693334	0.1832669918418555	0.1185303216535757	0.2272084975092589
1.891	0.4660960374031012	0.9898898316927774	0.8945711155808104	0.1832773667555997	0.1188550157922162	0.2272180123148248
1.8920000000000001	0.4661946625337587	0.988683374417632	0.8901283617180606	0.1832762431880582	0.1191845880131566	0.2272509160981538
1.893	0.4663595262950393	0.9874113456116826	0.8856477806872832	0.1832637790484066	0.1195196307210954	0.2273078498012427
1.8940000000000001	0.4665886750872138	0.9860745121504488	0.8811333115997861	0.1832401222200976	0.1198607221472523	0.2273894025280046
1.895	0.4668801113224043	0.9846737207870124	0.8765888727024758	0.1832054096812217	0.120208425159112	0.2274961092613892
1.8960000000000001	0.4672317964246216	0.983209898028793	0.8720183556498802	0.1831597666578094	0.1205632860809185	0.2276284487602349
1.897	0.4676416538539664	0.9816840498464096	0.8674256199392552	0.183103305813953	0.1209258335259856	0.2277868416393127
1.8980000000000001	0.468107572145445	0.980097261226436	0.8628144875280327	0.1830361264825666	0.1212965772427097	0.2279716486353493
1.899	0.468627407954537	0.978450695578962	0.8581887376524572	0.1829583139410306	0.1216760069770639	0.2281831690609963
1.9000000000000001	0.4691989891030183	0.976745594009829	0.8535521018641639	0.1828699387360498	0.122064591355116	0.2284216394481295
1.901	0.469820117620514	0.9749832744661318	0.8489082593005332	0.1827710560620071	0.1224627767897901	0.2286872323811933
1.9020000000000001	0.4704885727785778	0.9731651307615706	0.8442608322028741	0.1826617051973316	0.1228709864164369	0.2289800555208872
1.903	0.4712021141142167	0.9712926314868288	0.8396133816942601	0.1825419090029522	0.1232896190617879	0.2293001508181203
1.9040000000000001	0.4719584844393555	0.9693673188082664	0.8349694038277464	0.1824116734867315	0.1237190482508636	0.2296474939177441
1.905	0.4727554128315673	0.9673908071578344	0.8303323259131382	0.182270987437421	0.1241596212560106	0.2300219937513384
1.9060000000000001	0.473590617601091	0.9653647818167574	0.8257055031302193	0.1821198221313103	0.1246116581920752	0.2304234923175847
1.907	0.4744618092294144	0.9632909973959612	0.8210922154341979	0.1819581311142642	0.1250754511612848	0.230851764648448
1.9080000000000001	0.4753666932746589	0.961171276216476	0.8164956647586747	0.1817858500616453	0.1255512634511826	0.2313065189585104
1.909	0.476302973240334	0.9590075065935676	0.811918972519524	0.1816028967178705	0.1260393287886055	0.2317873969744137
1.9100000000000001	0.4772683534037496	0.9568016410292944	0.8073651774217449	0.1814091709171763	0.1265398506525399	0.2322939744407555
1.911	0.4782605416011691	0.954555694318919	0.8028372335681092	0.1812045546867265	0.1270530016484144	0.2328257617981855
1.9120000000000001	0.4792772519665754	0.952271741577048	0.798338008866647	0.1809889124326917	0.1275789229462293	0.23338220502893
1.913	0.4803162076209069	0.9499519161887202	0.7938702837310164	0.1807620912096612	0.1281177237847871	0.2339626866644489
1.9140000000000001	0.481375143309132	0.9475984076890968	0.7894367500659494	0.1805239210734463	0.1286694810439207	0.2345665269494627
1.915	0.4824518079820211	0.945213459573403	0.7850400105279032	0.1802742155170975	0.1292342388864772	0.235192985156019
1.9160000000000001	0.4835439673201927	0.9427993670365648	0.7806825780493557	0.1800127719899744	0.1298120084714821	0.2358412610408085
1.917	0.4846494061973686	0.9403584746404456	0.7763668756144639	0.1797393724994586	0.1304027677397227	0.236510496438425
1.9180000000000001	0.4857659310809719	0.9378931739054456	0.7720952362725144	0.1794537842951514	0.131006461272763	0.2371997769828124
1.919	0.4868913723681443	0.9354059008231116	0.7678699033760746	0.1791557606348424	0.1316230002260869	0.2379081339487262
1.92	0.4880235866569116	0.932899133286776	0.7636930310293901	0.1788450416316499	0.1322522623367042	0.2386345462047066
1.921	0.4891604589525721	0.9303753884371304	0.7595666847315203	0.1785213551812087	0.1328940920052339	0.2393779422692024
1.922	0.4902999048105576	0.92783721992044	0.7554928421989019	0.1781844179677921	0.133548300452007	0.2401372024619879
1.923	0.4914398724162602	0.9252872150576044	0.7514733943502778	0.1778339365477435	0.1342146659462964	0.2409111611436716
1.924	0.4925783446023101	0.9227279919231344	0.747510146439659	0.1774696085087602	0.1348929341074414	0.2416986090372934
1.925	0.4937133408028338	0.9201621963334252	0.7436048193230307	0.1770911237033417	0.1355828182760974	0.2424982956269291
1.926	0.4948429189449826	0.9175924987446984	0.7397590508463088	0.17669816555455	0.1362839999536439	0.2433089316289678
1.927	0.4959651772775778	0.9150215910628774	0.7359743973439133	0.176290412432469	0.1369961293073921	0.2441291915324576
1.928	0.4970782561374607	0.9124521833694992	0.7322523352364698	0.1758675390994414	0.1377188257391543	0.2449577162052597
1.929	0.4981803396539835	0.9098870005700715	0.7285942627176712	0.1754292182222619	0.1384516785147289	0.2457931155630794
1.93	0.4992696573924368	0.9073287789719856	0.7250015015188616	0.1749751219492773	0.1391942474519592	0.2466339712989429
1.931	0.5003444859370464	0.9047802627996818	0.7214752987403232	0.1745049235502402	0.1399460636652259	0.2474788396709382
1.932	0.5014031504151332	0.9022442006543177	0.7180168287367515	0.1740182991163826	0.1407066303644006	0.248326254346545
1.933	0.5024440259636378	0.8997233419243181	0.7146271950451355	0.1735149293179007	0.1414754237063172	0.2491747293018875
1.934	0.5034655391398619	0.8972204331520949	0.7113074323424088	0.1729945012154706	0.1422518936967425	0.2500227617744384
1.935	0.5044661692780015	0.8947382143616573	0.7080585084203729	0.1724567101220259	0.1430354651406617	0.25086883526767
1.936	0.5054444497921073	0.8922794153520487	0.7048813261661645	0.1719012615106742	0.1438255386385613	0.2517114226060917
1.937	0.5063989694253652	0.8898467519620988	0.7017767255369644	0.1713278729641058	0.1446214916263467	0.2525489890389075
1.938	0.5073283734448835	0.8874429223136187	0.6987454855196781	0.1707362761610776	0.1454226794566066	0.253379995390122
1.939	0.5082313647806671	0.8850706030411823	0.6957883260665109	0.1701262188952165	0.1462284365189722	0.2542029012522019
1.94	0.5091067051078588	0.8827324455179275	0.6929059099997218	0.1694974671218339	0.1470380773972147	0.2550161682195906
1.941	0.5099532158716314	0.8804310720871876	0.6900988448783907	0.1688498070283197	0.147850898060498	0.255818263157435
1.942	0.5107697792543714	0.8781690723092462	0.6873676848197912	0.168183047123892	0.1486661770858614	0.2566076615001033
1.943	0.5115553390849414	0.8759489992320552	0.6847129322679394	0.1674970203445669	0.1494831769086821	0.2573828505732359
1.944	0.5123089016893472	0.8737733656936042	0.6821350397004299	0.1667915861693676	0.1503011450975548	0.258142332932492
1.945	0.5130295366813936	0.8716446406624776	0.6796344112654387	0.1660666327440953	0.1511193156496624	0.2588846297112349
1.946	0.5137163776916774	0.8695652456218051	0.6772114043390218	0.1653220790087825	0.1519369103025327	0.2596082839688293
1.947	0.5143686230341329	0.8675375510004871	0.6748663309943269	0.1645578768250356	0.1527531398578299	0.2603118640303842
1.948	0.5149855363098921	0.8655638726535555	0.6725994593734227	0.1637740130992721	0.1535672055128936	0.2609939668081359
1.949	0.5155664469494204	0.863646468391873	0.6704110149548175	0.1629705118972869	0.1543783001960016	0.2616532210940966
1.95	0.5161107506936798	0.8617875345591804	0.6683011817098585	0.1621474365457189	0.1551856099017028	0.2622882908129421
1.951	0.5166179100152516	0.8599892026532444	0.666270103143783	0.1613048917155515	0.1559883150230332	0.2628978782236135
1.952	0.5170874544793892	0.8582535359868418	0.6643178832189109	0.1604430254825961	0.1567855916778847	0.2634807270574213
1.953	0.5175189810443849	0.8565825263849031	0.6624445871597199	0.1595620313599336	0.1575766130269216	0.2640356255799206
1.954	0.5179121542995944	0.8549780909154923	0.6606502421412317	0.1586621502968364	0.1583605505805295	0.2645614095630723
1.955	0.5182667066390922	0.8534420686544536	0.6589348378644171	0.1577436726387484	0.1591365754921112	0.2650569651541289
1.956	0.5185824383679938	0.851976217486518	0.6572983270224872	0.156806940042575	0.1599038598350576	0.2655212316272797
1.957	0.5188592177383766	0.8505822109487581	0.6557406256639738	0.1558523473418295	0.1606615778606458	0.2659532040041695
1.958	0.5190969809121561	0.8492616351254015	0.6542616134588087	0.1548803443559657	0.1614089072339954	0.2663519355295741
1.959	0.5192957318484934	0.848015985605768	0.652861133875624	0.1538914376383352	0.1621450302450141	0.2667165399885978
1.96	0.5194555421143371	0.8468466645183089	0.6515389942790142	0.1528861921570181	0.1628691349910754	0.2670461938523983
1.961	0.5195765506165357	0.8457549776537451	0.650294965956151	0.1518652329029287	0.1635804165281226	0.2673401382401851
1.962	0.5196589632534154	0.8447421316894879	0.6491287840814967	0.1508292464195402	0.164278077987128	0.2675976806869141
